Coordinates
version=1
nRows=24
nColumns=24
inDegrees=yes

Units are S.I. units (second, meters, Newtons, ...)
Angles are in degrees.

endheader
time	pelvis_tilt	pelvis_list	pelvis_rotation	pelvis_tx	pelvis_ty	pelvis_tz	hip_flexion_r	hip_adduction_r	hip_rotation_r	knee_angle_r	ankle_angle_r	subtalar_angle_r	mtp_angle_r	hip_flexion_l	hip_adduction_l	hip_rotation_l	knee_angle_l	ankle_angle_l	subtalar_angle_l	mtp_angle_l	lumbar_extension	lumbar_bending	lumbar_rotation
      5.42500000	     -1.98572727	     -0.54896672	     -1.97566142	      1.35460655	      1.03560204	     -0.20362083	     -2.72605969	      5.78651185	     11.44836720	     -8.06839198	     14.11957752	    -14.79402030	      0.00000000	     28.18161858	     -5.16787932	    -13.91469931	    -47.78559218	      6.66571708	     -5.41575614	      0.00000000	    -12.05559673	     -1.36355728	      4.80015515
      5.43000000	     -1.86311635	     -0.58496918	     -2.16722376	      1.36021223	      1.03555263	     -0.20357885	     -3.30537966	      5.76358939	     11.68718000	     -7.85652818	     14.09056574	    -14.81855508	      0.00000000	     28.11984227	     -5.14902436	    -14.07902398	    -46.25376450	      6.93909430	     -5.10215104	      0.00000000	    -12.25273879	     -1.35217915	      5.10196994
      5.43500000	     -1.94968598	     -0.66008520	     -2.22530882	      1.36586081	      1.03511009	     -0.20374000	     -3.64071203	      5.79677637	     11.70799469	     -7.68622921	     14.11819960	    -14.77805102	      0.00000000	     28.29729037	     -5.09971663	    -14.05771754	    -44.71791678	      7.20275571	     -4.73150728	      0.00000000	    -12.19267809	     -1.26450849	      5.24348067
      5.44000000	     -1.89532388	     -0.72764291	     -2.39005525	      1.37154251	      1.03483463	     -0.20378764	     -4.12271034	      5.80328507	     11.85036276	     -7.53500730	     14.18567155	    -14.68208269	      0.00000000	     28.26594572	     -5.08809029	    -14.16527639	    -43.11767130	      7.44920823	     -4.37155438	      0.00000000	    -12.30164429	     -1.20265600	      5.50764606
      5.44500000	     -1.87619815	     -0.80371809	     -2.49572187	      1.37727415	      1.03446164	     -0.20392456	     -4.56598880	      5.82116815	     11.92276536	     -7.38858662	     14.24558687	    -14.59003200	      0.00000000	     28.25744094	     -5.04627434	    -14.18278825	    -41.48007416	      7.64442411	     -3.99516000	      0.00000000	    -12.36260669	     -1.12639509	      5.70311234
      5.45000000	     -1.87915495	     -0.89200336	     -2.59885220	      1.38303233	      1.03400464	     -0.20409474	     -4.97839911	      5.84958868	     11.98646469	     -7.26255504	     14.32605294	    -14.47276909	      0.00000000	     28.24821427	     -5.01038653	    -14.18753702	    -39.80648753	      7.81859904	     -3.60573574	      0.00000000	    -12.39845814	     -1.02613492	      5.89666297
      5.45500000	     -1.93696961	     -0.99310957	     -2.67093367	      1.38884739	      1.03342350	     -0.20431337	     -5.33568674	      5.89356867	     12.03729475	     -7.13881642	     14.40026126	    -14.35504300	      0.00000000	     28.27970028	     -4.97187792	    -14.14676413	    -38.10568897	      7.96126817	     -3.17533419	      0.00000000	    -12.36011260	     -0.90042004	      6.04259602
      5.46000000	     -1.99828214	     -1.10234126	     -2.75226184	      1.39460618	      1.03278681	     -0.20454472	     -5.66336863	      5.94810798	     12.09267352	     -7.06529947	     14.50211256	    -14.24448579	      0.00000000	     28.28754002	     -4.92966931	    -14.05618951	    -36.35859414	      8.08102078	     -2.74524857	      0.00000000	    -12.33885546	     -0.76974619	      6.22031837
      5.46500000	     -1.88171400	     -1.17637546	     -2.89714531	      1.40052048	      1.03241612	     -0.20472278	     -6.19640159	      5.93781569	     12.13466964	     -6.97427736	     14.65298031	    -13.97556296	      0.00000000	     28.03702832	     -4.87807182	    -14.10544202	    -34.52975545	      8.15084118	     -2.35015017	      0.00000000	    -12.50187838	     -0.69858724	      6.44283295
      5.47000000	     -1.95171029	     -1.28708031	     -2.95241859	      1.40642990	      1.03170658	     -0.20499968	     -6.53057932	      5.98851030	     12.18743930	     -6.88975152	     14.74831194	    -13.82893217	      0.00000000	     27.99839068	     -4.82568590	    -13.99364290	    -32.71458500	      8.19505820	     -1.86687448	      0.00000000	    -12.44744222	     -0.55875467	      6.55323927
      5.47500000	     -1.93181611	     -1.37057400	     -3.06477847	      1.41237820	      1.03111678	     -0.20528408	     -6.94754621	      5.99163790	     12.22903279	     -6.83436880	     14.90216423	    -13.57401087	      0.00000000	     27.81105244	     -4.75980921	    -13.95890345	    -30.83512681	      8.21126216	     -1.41256452	      0.00000000	    -12.50492880	     -0.44845444	      6.73904616
      5.48000000	     -1.91741772	     -1.47047710	     -3.15979158	      1.41835043	      1.03048476	     -0.20557880	     -7.35446222	      6.01575675	     12.25651398	     -6.79314780	     15.04777657	    -13.32598343	      0.00000000	     27.60889122	     -4.69624070	    -13.86400742	    -28.93088569	      8.17980792	     -0.97746298	      0.00000000	    -12.55297633	     -0.32652151	      6.89569728
      5.48500000	     -1.90601379	     -1.58035331	     -3.26553400	      1.42435333	      1.02981655	     -0.20587038	     -7.75123881	      6.04988304	     12.27013851	     -6.76949313	     15.19166241	    -13.07180997	      0.00000000	     27.38391493	     -4.64368366	    -13.75505726	    -27.00479305	      8.12061712	     -0.56023923	      0.00000000	    -12.59627414	     -0.19632521	      7.06345404
      5.49000000	     -1.95038908	     -1.70093934	     -3.35592428	      1.43038548	      1.02903437	     -0.20618447	     -8.08997669	      6.09837368	     12.34071306	     -6.75611331	     15.33064746	    -12.83862712	      0.00000000	     27.20742499	     -4.59820291	    -13.59642749	    -25.08278957	      8.01820587	     -0.12730306	      0.00000000	    -12.56575101	     -0.04704281	      7.19689054
      5.49500000	     -1.96142325	     -1.81477077	     -3.46141428	      1.43647273	      1.02828787	     -0.20656904	     -8.45654565	      6.12929469	     12.36989238	     -6.75972414	     15.47251653	    -12.56005310	      0.00000000	     26.96359395	     -4.54027862	    -13.43381979	    -23.13662639	      7.88836094	      0.24360269	      0.00000000	    -12.58024316	      0.11225644	      7.35823600
      5.50000000	     -1.98285833	     -1.93801264	     -3.55806565	      1.44262485	      1.02749469	     -0.20692733	     -8.81188264	      6.17511777	     12.38981355	     -6.77312968	     15.60848733	    -12.29019257	      0.00000000	     26.71503172	     -4.49085097	    -13.22164885	    -21.19877723	      7.72607755	      0.58718742	      0.00000000	    -12.57015507	      0.27223016	      7.49686123
      5.50500000	     -2.01278784	     -2.06293934	     -3.65423969	      1.44884157	      1.02666860	     -0.20732848	     -9.15375995	      6.22028206	     12.39407709	     -6.80239027	     15.73193032	    -12.01498300	      0.00000000	     26.45778552	     -4.44039121	    -12.97002019	    -19.27103601	      7.53796030	      0.88488308	      0.00000000	    -12.54684965	      0.44199579	      7.63451423
      5.51000000	     -2.02197305	     -2.17898997	     -3.74653629	      1.45514927	      1.02585232	     -0.20769573	     -9.51696477	      6.25677299	     12.35444089	     -6.84032122	     15.87031115	    -11.70348312	      0.00000000	     26.15752373	     -4.38158055	    -12.66896441	    -17.35450281	      7.29942462	      1.11955555	      0.00000000	    -12.53081993	      0.58840992	      7.75032892
      5.51500000	     -2.02903508	     -2.29170200	     -3.82337040	      1.46148608	      1.02501776	     -0.20811795	     -9.87434792	      6.28643732	     12.32309973	     -6.90242462	     16.03130085	    -11.35780041	      0.00000000	     25.84472955	     -4.31366215	    -12.29072945	    -15.46749589	      7.00843392	      1.30069691	      0.00000000	    -12.52149902	      0.74161786	      7.83759740
      5.52000000	     -2.10274092	     -2.46160308	     -3.95664537	      1.46780981	      1.02408806	     -0.20844261	    -10.15382322	      6.37505202	     12.38945420	     -6.98893032	     16.13392673	    -11.06466887	      0.00000000	     25.59368700	     -4.33767900	    -11.89337887	    -13.63468172	      6.68401226	      1.38373184	      0.00000000	    -12.43788822	      0.95707069	      7.99403664
      5.52500000	     -2.09480574	     -2.55496584	     -4.02207847	      1.47435181	      1.02326293	     -0.20889969	    -10.51647074	      6.38087806	     12.24834487	     -7.08466253	     16.28819046	    -10.64904862	      0.00000000	     25.21748136	     -4.24632085	    -11.37076053	    -11.79055937	      6.26733398	      1.30999901	      0.00000000	    -12.41635407	      1.09149320	      8.06231199
      5.53000000	     -2.10724597	     -2.68271660	     -4.11498058	      1.48086855	      1.02240317	     -0.20926593	    -10.84626940	      6.42152224	     12.16943272	     -7.21138277	     16.44209035	    -10.21827916	      0.00000000	     24.86131455	     -4.22085599	    -10.81899920	    -10.02349376	      5.81183466	      1.19111156	      0.00000000	    -12.38239494	      1.25481202	      8.15025124
      5.53500000	     -2.12182750	     -2.81312322	     -4.21019896	      1.48743664	      1.02154279	     -0.20961939	    -11.16485941	      6.46342001	     12.06748576	     -7.35923042	     16.58929501	     -9.76232293	      0.00000000	     24.49617364	     -4.21105571	    -10.21324782	     -8.31831909	      5.30316154	      0.97060118	      0.00000000	    -12.34388459	      1.42187293	      8.23165802
      5.54000000	     -2.12180073	     -2.94503160	     -4.29021934	      1.49403505	      1.02069852	     -0.20994496	    -11.48521624	      6.50915828	     11.94322925	     -7.54063435	     16.75799246	     -9.25711539	      0.00000000	     24.11316643	     -4.21395355	     -9.54292279	     -6.69182378	      4.74549482	      0.66688011	      0.00000000	    -12.32157448	      1.58027604	      8.28536308
